<svg width="18" height="18" viewBox="0 0 18 18" fill="none" xmlns="http://www.w3.org/2000/svg">
<path d="M18 1C18 0.522 17.621 0 17 0H1C0.38 0 0 0.519 0 1V17C0 17.621 0.52 18 1 18H17C17.478 18 18 17.621 18 17V1ZM3.949 9.382C3.784 9.234 3.7 9.03 3.7 8.825C3.7 8.414 4.033 8.079 4.448 8.079C4.626 8.079 4.803 8.142 4.947 8.269L8.245 11.207L13.698 5.245C13.847 5.084 14.048 5.002 14.252 5.002C14.669 5.002 15 5.339 15 5.749C15 5.928 14.935 6.108 14.804 6.251L8.851 12.76C8.704 12.921 8.501 13.002 8.299 13.002C8.121 13.002 7.942 12.94 7.8 12.812L3.949 9.382Z" fill="black" fill-opacity="0.5"/>
</svg>
