<svg width="50" height="50" viewBox="0 0 50 50" fill="none" xmlns="http://www.w3.org/2000/svg">
<g clip-path="url(#clip0_129_44)">
<rect width="50" height="50" fill="white"/>
<path d="M50 2.77778C50 1.45 48.9472 0 47.2222 0H2.77778C1.05556 0 0 1.44167 0 2.77778V47.2222C0 48.9472 1.44444 50 2.77778 50H47.2222C48.55 50 50 48.9472 50 47.2222V2.77778ZM10.9694 26.0611C10.5111 25.65 10.2778 25.0833 10.2778 24.5139C10.2778 23.3722 11.2028 22.4417 12.3556 22.4417C12.85 22.4417 13.3417 22.6167 13.7417 22.9694L22.9028 31.1306L38.05 14.5694C38.4639 14.1222 39.0222 13.8944 39.5889 13.8944C40.7472 13.8944 41.6667 14.8306 41.6667 15.9694C41.6667 16.4667 41.4861 16.9667 41.1222 17.3639L24.5861 35.4444C24.1778 35.8917 23.6139 36.1167 23.0528 36.1167C22.5583 36.1167 22.0611 35.9444 21.6667 35.5889L10.9694 26.0611Z" fill="#A1BADD"/>
</g>
<defs>
<clipPath id="clip0_129_44">
<rect width="50" height="50" fill="white"/>
</clipPath>
</defs>
</svg>
