<svg width="221" height="90" viewBox="0 0 221 90" fill="none" xmlns="http://www.w3.org/2000/svg">
<rect width="220.626" height="90" rx="5" fill="#121212"/>
<path d="M20 31.6979H32.4332V69.4652H43.8636V31.6979H56.2968V22.5401H20V31.6979Z" fill="white"/>
<path d="M98.5308 50.8155C98.5308 38.984 90.1083 31.631 79.1457 31.631C68.25 31.631 59.7607 38.984 59.7607 50.8155C59.7607 62.6471 68.0495 70 79.012 70C89.9746 70 98.5308 62.6471 98.5308 50.8155ZM71.3917 50.8155C71.3917 44.4652 75.0014 41.5241 79.1457 41.5241C83.1564 41.5241 86.8998 44.4652 86.8998 50.8155C86.8998 57.0989 83.0896 60.1069 79.012 60.1069C74.8677 60.1069 71.3917 57.0989 71.3917 50.8155Z" fill="white"/>
<path d="M116.488 50.7487C116.488 62.5134 123.774 70 132.931 70C138.413 70 142.356 67.5267 144.429 64.1176V69.4652H155.859V20H144.429V37.3128C142.156 33.9037 137.878 31.631 132.931 31.631C123.774 31.631 116.488 38.984 116.488 50.7487ZM144.429 50.8155C144.429 56.7647 140.619 60.0401 136.274 60.0401C131.996 60.0401 128.119 56.6979 128.119 50.7487C128.119 44.7995 131.996 41.5909 136.274 41.5909C140.619 41.5909 144.429 44.8663 144.429 50.8155Z" fill="#A1BADD"/>
<path d="M200.626 50.8155C200.626 38.984 192.203 31.631 181.241 31.631C170.345 31.631 161.856 38.984 161.856 50.8155C161.856 62.6471 170.145 70 181.107 70C192.07 70 200.626 62.6471 200.626 50.8155ZM173.487 50.8155C173.487 44.4652 177.097 41.5241 181.241 41.5241C185.252 41.5241 188.995 44.4652 188.995 50.8155C188.995 57.0989 185.185 60.1069 181.107 60.1069C176.963 60.1069 173.487 57.0989 173.487 50.8155Z" fill="#A1BADD"/>
</svg>
