<svg width="181" height="50" viewBox="0 0 181 50" fill="none" xmlns="http://www.w3.org/2000/svg">
<path d="M0 11.6979H12.4283V49.4652H23.8543V11.6979H36.2826V2.54011H0V11.6979Z" fill="white"/>
<path d="M78.5002 30.8155C78.5002 18.984 70.081 11.631 59.1227 11.631C48.2312 11.631 39.7452 18.984 39.7452 30.8155C39.7452 42.6471 48.0308 50 58.989 50C69.9473 50 78.5002 42.6471 78.5002 30.8155ZM51.3717 30.8155C51.3717 24.4652 54.9799 21.5241 59.1227 21.5241C63.1318 21.5241 66.8737 24.4652 66.8737 30.8155C66.8737 37.0989 63.065 40.1069 58.989 40.1069C54.8463 40.1069 51.3717 37.0989 51.3717 30.8155Z" fill="white"/>
<path d="M96.4499 30.7487C96.4499 42.5134 103.733 50 112.887 50C118.366 50 122.309 47.5267 124.38 44.1176V49.4652H135.806V0H124.38V17.3128C122.108 13.9037 117.832 11.631 112.887 11.631C103.733 11.631 96.4499 18.984 96.4499 30.7487ZM124.38 30.8155C124.38 36.7647 120.572 40.0401 116.228 40.0401C111.952 40.0401 108.076 36.6979 108.076 30.7487C108.076 24.7995 111.952 21.5909 116.228 21.5909C120.572 21.5909 124.38 24.8663 124.38 30.8155Z" fill="#A1BADD"/>
<path d="M180.556 30.8155C180.556 18.984 172.136 11.631 161.178 11.631C150.287 11.631 141.801 18.984 141.801 30.8155C141.801 42.6471 150.086 50 161.044 50C172.003 50 180.556 42.6471 180.556 30.8155ZM153.427 30.8155C153.427 24.4652 157.035 21.5241 161.178 21.5241C165.187 21.5241 168.929 24.4652 168.929 30.8155C168.929 37.0989 165.12 40.1069 161.044 40.1069C156.902 40.1069 153.427 37.0989 153.427 30.8155Z" fill="#A1BADD"/>
</svg>
